<svg width="27" height="25" viewBox="0 0 27 25" fill="none" xmlns="http://www.w3.org/2000/svg">
<g clip-path="url(#clip0_121503_527)">
<path d="M19.3299 0.000340796C18.1886 0.0104951 17.0628 0.264716 16.0279 0.745933C14.993 1.22715 14.0731 1.92422 13.3299 2.79034C12.5866 1.92422 11.6667 1.22715 10.6318 0.745933C9.59695 0.264716 8.47109 0.0104951 7.32985 0.000340796C6.36466 -0.00901119 5.4073 0.174199 4.51376 0.539254C3.62022 0.904309 2.80844 1.44388 2.12592 2.1264C1.44339 2.80893 0.903821 3.6207 0.538766 4.51424C0.17371 5.40778 -0.00949947 6.36515 -0.000147485 7.33034C-0.000147485 12.3303 4.52985 16.4803 11.3999 22.7203L13.3299 24.4603L15.2699 22.7003C22.1299 16.4603 26.6699 12.3703 26.6699 7.33034C26.6779 6.36467 26.4934 5.40709 26.1273 4.5135C25.7611 3.61991 25.2206 2.80822 24.5373 2.12583C23.8539 1.44345 23.0415 0.904034 22.1474 0.539097C21.2533 0.174159 20.2955 -0.00899081 19.3299 0.000340796ZM13.4699 20.7303L13.3299 20.8703L13.1999 20.7303C6.84985 14.9903 2.66985 11.1903 2.66985 7.33034C2.65477 6.71426 2.76499 6.10154 2.99384 5.52935C3.22269 4.95715 3.56539 4.43741 4.00115 4.00164C4.43692 3.56588 4.95666 3.22318 5.52886 2.99433C6.10105 2.76548 6.71377 2.65526 7.32985 2.67034C8.34289 2.67318 9.33303 2.97186 10.1786 3.52968C11.0243 4.08751 11.6885 4.88019 12.0899 5.81034H14.5899C14.9866 4.881 15.647 4.0883 16.4895 3.53024C17.3319 2.97219 18.3194 2.67323 19.3299 2.67034C19.9464 2.65531 20.5596 2.7655 21.1323 2.99424C21.705 3.22298 22.2254 3.56551 22.6619 4.00113C23.0985 4.43674 23.4421 4.95638 23.6721 5.52861C23.9021 6.10085 24.0136 6.71378 23.9999 7.33034C23.9999 11.1903 19.8099 14.9903 13.4699 20.7303Z" fill="#99CB35"/>
</g>
<defs>
<clipPath id="clip0_121503_527">
<rect width="26.67" height="24.47" fill="white"/>
</clipPath>
</defs>
</svg>
