<svg width="28" height="25" viewBox="0 0 28 25" fill="none" xmlns="http://www.w3.org/2000/svg">
<path d="M20.3 -3.02929e-05C19.1084 0.00454342 17.9312 0.260793 16.8455 0.751934C15.7598 1.24308 14.7902 1.95803 14 2.84997C13.2098 1.95803 12.2402 1.24308 11.1545 0.751934C10.0688 0.260793 8.8916 0.00454342 7.7 -3.02929e-05C6.70029 -0.0226186 5.70609 0.154138 4.77543 0.519924C3.84477 0.885711 2.99629 1.4332 2.2795 2.13044C1.56271 2.82768 0.991978 3.6607 0.600604 4.5809C0.20923 5.50109 0.00505674 6.49002 0 7.48997C0 12.65 4.76 16.84 12 23.22L14 25L16 23.2C23.21 16.83 28 12.64 28 7.47997C27.9936 6.48086 27.7885 5.49301 27.3965 4.57398C27.0045 3.65495 26.4336 2.82311 25.7169 2.12693C25.0003 1.43076 24.1523 0.88416 23.2223 0.518993C22.2923 0.153827 21.2989 -0.0226073 20.3 -3.02929e-05ZM14.14 21.19L14 21.33L13.86 21.19C7.2 15.32 2.8 11.43 2.8 7.48997C2.79412 6.85133 2.91791 6.21814 3.16388 5.62874C3.40985 5.03934 3.77287 4.50598 4.23097 4.06097C4.68907 3.61596 5.23272 3.26854 5.82901 3.03976C6.42529 2.81098 7.0618 2.70559 7.7 2.72997C8.75438 2.72512 9.7876 3.02566 10.6749 3.59529C11.5621 4.16492 12.2655 4.97927 12.7 5.93997H15.32C15.7493 4.97539 16.4514 4.1575 17.3399 3.58712C18.2283 3.01673 19.2643 2.71877 20.32 2.72997C20.9582 2.70559 21.5947 2.81098 22.191 3.03976C22.7873 3.26854 23.3309 3.61596 23.789 4.06097C24.2471 4.50598 24.6102 5.03934 24.8561 5.62874C25.1021 6.21814 25.2259 6.85133 25.22 7.48997C25.2 11.43 20.8 15.32 14.14 21.19Z" fill="#99CB35"/>
</svg>
