<svg id="Camada_1" data-name="Camada 1" xmlns="http://www.w3.org/2000/svg" viewBox="0 0 28 25"><defs><style>.cls-1{fill:#99cb35;}</style></defs><path class="cls-1" d="M20.3,0A8.46,8.46,0,0,0,14,2.85,8.46,8.46,0,0,0,7.7,0,7.53,7.53,0,0,0,0,7.49c0,5.16,4.76,9.35,12,15.73L14,25l2-1.8c7.21-6.37,12-10.56,12-15.72A7.53,7.53,0,0,0,20.3,0ZM14.14,21.19l-.14.14-.14-.14C7.2,15.32,2.8,11.43,2.8,7.49A4.72,4.72,0,0,1,7.7,2.73a5.46,5.46,0,0,1,5,3.21h2.62a5.41,5.41,0,0,1,5-3.21,4.72,4.72,0,0,1,4.9,4.76C25.2,11.43,20.8,15.32,14.14,21.19Z"/></svg>